<svg xmlns="http://www.w3.org/2000/svg" style="display:none" aria-hidden="true">
  <symbol id="i-full-names" viewBox="0 0 24 24" fill="none" stroke="currentColor" stroke-width="1.75" stroke-linecap="round" stroke-linejoin="round"><circle cx="12" cy="9" r="3.5"></circle><path d="M5 20c.8-3.4 3.6-5.4 7-5.4s6.2 2 7 5.4"></path></symbol>
  <symbol id="i-passport-id" viewBox="0 0 24 24" fill="none" stroke="currentColor" stroke-width="1.75" stroke-linecap="round" stroke-linejoin="round"><rect x="3" y="5" width="18" height="14" rx="2"></rect><rect x="6" y="8.5" width="4.5" height="5" rx=".5"></rect><line x1="12.5" y1="10" x2="18" y2="10"></line><line x1="12.5" y1="12.5" x2="18" y2="12.5"></line></symbol>
  <symbol id="i-card-numbers" viewBox="0 0 24 24" fill="none" stroke="currentColor" stroke-width="1.75" stroke-linecap="round" stroke-linejoin="round"><rect x="2.5" y="5.5" width="19" height="13" rx="2"></rect><line x1="2.5" y1="9.5" x2="21.5" y2="9.5"></line><rect x="5" y="12.5" width="3.5" height="3" rx=".5"></rect></symbol>
  <symbol id="i-emails" viewBox="0 0 24 24" fill="none" stroke="currentColor" stroke-width="1.75" stroke-linecap="round" stroke-linejoin="round"><rect x="2.5" y="5" width="19" height="14" rx="2"></rect><path d="M3.25 7l8.75 6.25L20.75 7"></path></symbol>
  <symbol id="i-phone-numbers" viewBox="0 0 24 24" fill="none" stroke="currentColor" stroke-width="1.75" stroke-linecap="round" stroke-linejoin="round"><rect x="6" y="2.5" width="12" height="19" rx="2.5"></rect><line x1="10" y1="5.5" x2="14" y2="5.5"></line><circle cx="12" cy="18.5" r=".9" fill="currentColor" stroke="none"></circle></symbol>
  <symbol id="i-addresses" viewBox="0 0 24 24" fill="none" stroke="currentColor" stroke-width="1.75" stroke-linecap="round" stroke-linejoin="round"><path d="M3 11.5L12 3.5l9 8v9a1 1 0 0 1-1 1H4a1 1 0 0 1-1-1z"></path><path d="M9.5 21v-5.5a1 1 0 0 1 1-1h3a1 1 0 0 1 1 1V21"></path></symbol>
  <symbol id="i-faces" viewBox="0 0 24 24" fill="none" stroke="currentColor" stroke-width="1.75" stroke-linecap="round" stroke-linejoin="round"><path d="M4 8V6a2 2 0 0 1 2-2h2 M16 4h2a2 2 0 0 1 2 2v2 M20 16v2a2 2 0 0 1-2 2h-2 M8 20H6a2 2 0 0 1-2-2v-2"></path><circle cx="12" cy="12" r="3.2"></circle></symbol>
  <symbol id="i-signatures" viewBox="0 0 24 24" fill="none" stroke="currentColor" stroke-width="1.75" stroke-linecap="round" stroke-linejoin="round"><path d="M4 14.5c0-2.5 3-3.5 4-1.5s-2 4.5 0 4.5 4-3 6-3 1.5 3 3.5 2.5 3.5-2 3.5-2"></path><path d="M3 20.5h18"></path></symbol>
</svg>